<mxfile host="app.diagrams.net" modified="2020-09-09T08:05:12.798Z" agent="5.0 (Windows)" etag="5exsicInTnw4XTYXgV2k" version="13.6.9" type="github">
  <diagram id="C5RBs43oDa-KdzZeNtuy" name="Page-1">
    <mxGraphModel dx="1009" dy="630" grid="1" gridSize="10" guides="1" tooltips="1" connect="1" arrows="1" fold="1" page="1" pageScale="1" pageWidth="827" pageHeight="1169" math="0" shadow="0">
      <root>
        <mxCell id="WIyWlLk6GJQsqaUBKTNV-0" />
        <mxCell id="WIyWlLk6GJQsqaUBKTNV-1" parent="WIyWlLk6GJQsqaUBKTNV-0" />
        <mxCell id="I4y3ttGowcUQWgG4_OlH-4" value="&lt;p style=&quot;margin: 4px 0px 0px ; text-decoration: underline ; font-size: 15px&quot; align=&quot;center&quot;&gt;&lt;b&gt;Payroll System&lt;/b&gt;&lt;br&gt;&lt;/p&gt;&lt;hr&gt;&lt;p style=&quot;margin: 0px 0px 0px 8px ; font-size: 13px&quot;&gt;&lt;br&gt;&lt;/p&gt;&lt;br&gt;&lt;p style=&quot;margin: 0px 0px 0px 8px ; font-size: 13px&quot;&gt;&lt;br&gt;&lt;/p&gt;" style="verticalAlign=top;align=left;overflow=fill;fontSize=12;fontFamily=Helvetica;html=1;strokeWidth=2;fillColor=#dae8fc;strokeColor=#6c8ebf;dashed=1;dashPattern=1 1;rounded=1;perimeterSpacing=0;shadow=1;sketch=0;gradientColor=#ffffff;gradientDirection=east;imageAspect=1;" parent="WIyWlLk6GJQsqaUBKTNV-1" vertex="1">
          <mxGeometry x="330" y="360" width="160" height="90" as="geometry" />
        </mxCell>
        <mxCell id="I4y3ttGowcUQWgG4_OlH-12" value="" style="endArrow=block;startArrow=block;html=1;strokeColor=#CC0000;exitX=0.663;exitY=-0.022;exitDx=0;exitDy=0;endFill=0;startFill=0;endSize=12;targetPerimeterSpacing=0;startSize=12;exitPerimeter=0;entryX=0.25;entryY=1;entryDx=0;entryDy=0;" parent="WIyWlLk6GJQsqaUBKTNV-1" source="I4y3ttGowcUQWgG4_OlH-4" target="JhNdbCUnNRkgnIKicVBu-2" edge="1">
          <mxGeometry width="50" height="50" relative="1" as="geometry">
            <mxPoint x="300" y="370" as="sourcePoint" />
            <mxPoint x="504" y="182" as="targetPoint" />
          </mxGeometry>
        </mxCell>
        <mxCell id="I4y3ttGowcUQWgG4_OlH-13" value="" style="endArrow=block;startArrow=block;html=1;strokeColor=#CC0000;exitX=1;exitY=0.5;exitDx=0;exitDy=0;endSize=12;startSize=12;endFill=0;startFill=0;entryX=0;entryY=0;entryDx=0;entryDy=0;" parent="WIyWlLk6GJQsqaUBKTNV-1" source="JhNdbCUnNRkgnIKicVBu-2" target="I4y3ttGowcUQWgG4_OlH-20" edge="1">
          <mxGeometry width="50" height="50" relative="1" as="geometry">
            <mxPoint x="698.1827923899443" y="533.6349510345804" as="sourcePoint" />
            <mxPoint x="678.5871199999999" y="186.02239999999995" as="targetPoint" />
          </mxGeometry>
        </mxCell>
        <mxCell id="I4y3ttGowcUQWgG4_OlH-17" value="&lt;b&gt;&lt;font style=&quot;font-size: 20px&quot;&gt;&lt;span id=&quot;yui_3_17_2_1_1599549741766_30&quot; lang=&quot;EN-US&quot;&gt;Smokestack payroll system&lt;/span&gt;&lt;/font&gt;&lt;/b&gt;" style="text;html=1;strokeColor=none;fillColor=none;align=center;verticalAlign=middle;whiteSpace=wrap;rounded=0;" parent="WIyWlLk6GJQsqaUBKTNV-1" vertex="1">
          <mxGeometry x="160" y="30" width="390" height="20" as="geometry" />
        </mxCell>
        <mxCell id="I4y3ttGowcUQWgG4_OlH-19" value="" style="endArrow=block;html=1;strokeColor=#CC0000;exitX=0.509;exitY=1.024;exitDx=0;exitDy=0;exitPerimeter=0;endSize=12;endFill=0;startArrow=block;startFill=0;startSize=12;" parent="WIyWlLk6GJQsqaUBKTNV-1" source="I4y3ttGowcUQWgG4_OlH-30" edge="1" target="JhNdbCUnNRkgnIKicVBu-11">
          <mxGeometry width="50" height="50" relative="1" as="geometry">
            <mxPoint x="165.8699999999999" y="200.14999999999998" as="sourcePoint" />
            <mxPoint x="148" y="369" as="targetPoint" />
          </mxGeometry>
        </mxCell>
        <mxCell id="I4y3ttGowcUQWgG4_OlH-20" value="&lt;font style=&quot;font-size: 14px&quot;&gt;&lt;b&gt;&lt;font style=&quot;font-size: 14px&quot;&gt;Project&lt;/font&gt;&lt;/b&gt;&lt;/font&gt;&lt;div style=&quot;font-size: 14px&quot;&gt;&lt;font style=&quot;font-size: 14px&quot;&gt;&lt;b&gt;&lt;font style=&quot;font-size: 14px&quot;&gt;Management&lt;/font&gt;&lt;br&gt;&lt;/b&gt;&lt;/font&gt;&lt;/div&gt;&lt;div style=&quot;font-size: 14px&quot;&gt;&lt;font style=&quot;font-size: 14px&quot;&gt;&lt;b&gt;System Old&lt;/b&gt;&lt;/font&gt;&lt;br&gt;&lt;b&gt;&lt;/b&gt;&lt;/div&gt;" style="html=1;strokeWidth=2;strokeColor=#6c8ebf;rounded=0;glass=0;shadow=1;" parent="WIyWlLk6GJQsqaUBKTNV-1" vertex="1">
          <mxGeometry x="660" y="220" width="110" height="50" as="geometry" />
        </mxCell>
        <mxCell id="I4y3ttGowcUQWgG4_OlH-21" value="" style="endArrow=block;startArrow=block;html=1;strokeColor=#CC0000;endSize=12;startSize=12;endFill=0;startFill=0;strokeWidth=1;exitX=0.5;exitY=0;exitDx=0;exitDy=0;entryX=0.5;entryY=1;entryDx=0;entryDy=0;" parent="WIyWlLk6GJQsqaUBKTNV-1" source="I4y3ttGowcUQWgG4_OlH-50" target="I4y3ttGowcUQWgG4_OlH-20" edge="1">
          <mxGeometry width="50" height="50" relative="1" as="geometry">
            <mxPoint x="410" y="580" as="sourcePoint" />
            <mxPoint x="715" y="290" as="targetPoint" />
          </mxGeometry>
        </mxCell>
        <mxCell id="I4y3ttGowcUQWgG4_OlH-30" value="" style="points=[];aspect=fixed;html=1;align=center;shadow=0;dashed=0;image;image=img/lib/allied_telesis/buildings/Large_Building.svg;strokeColor=#000000;strokeWidth=11;" parent="WIyWlLk6GJQsqaUBKTNV-1" vertex="1">
          <mxGeometry x="110" y="130" width="75" height="75" as="geometry" />
        </mxCell>
        <mxCell id="I4y3ttGowcUQWgG4_OlH-32" value="&lt;b&gt;&lt;font style=&quot;font-size: 15px&quot;&gt;Bank&lt;/font&gt;&lt;/b&gt;" style="text;html=1;strokeColor=none;fillColor=none;align=center;verticalAlign=middle;whiteSpace=wrap;rounded=0;" parent="WIyWlLk6GJQsqaUBKTNV-1" vertex="1">
          <mxGeometry x="60" y="150" width="40" height="20" as="geometry" />
        </mxCell>
        <mxCell id="I4y3ttGowcUQWgG4_OlH-40" value="" style="endArrow=block;startArrow=block;html=1;strokeColor=#CC0000;strokeWidth=1;exitX=1.017;exitY=0.617;exitDx=0;exitDy=0;entryX=-0.012;entryY=0.433;entryDx=0;entryDy=0;entryPerimeter=0;endSize=12;startSize=12;endFill=0;startFill=0;exitPerimeter=0;" parent="WIyWlLk6GJQsqaUBKTNV-1" source="JhNdbCUnNRkgnIKicVBu-11" target="I4y3ttGowcUQWgG4_OlH-4" edge="1">
          <mxGeometry width="50" height="50" relative="1" as="geometry">
            <mxPoint x="190" y="400" as="sourcePoint" />
            <mxPoint x="330" y="370" as="targetPoint" />
          </mxGeometry>
        </mxCell>
        <mxCell id="I4y3ttGowcUQWgG4_OlH-42" value="&lt;b&gt;&lt;font style=&quot;font-size: 14px&quot;&gt;&lt;font style=&quot;font-size: 14px&quot;&gt;Data&lt;/font&gt;base server old&lt;br&gt;&lt;/font&gt;&lt;/b&gt;" style="text;html=1;strokeColor=none;fillColor=none;align=center;verticalAlign=middle;whiteSpace=wrap;rounded=0;" parent="WIyWlLk6GJQsqaUBKTNV-1" vertex="1">
          <mxGeometry x="440" y="90" width="80" height="20" as="geometry" />
        </mxCell>
        <mxCell id="I4y3ttGowcUQWgG4_OlH-50" value="&lt;div style=&quot;font-size: 14px&quot;&gt;&lt;b&gt;&lt;font style=&quot;font-size: 14px&quot;&gt;Data transfer&lt;/font&gt;&lt;/b&gt;&lt;/div&gt;&lt;div style=&quot;font-size: 14px&quot;&gt;&lt;b&gt;Interface&lt;/b&gt;&lt;br&gt;&lt;/div&gt;" style="html=1;strokeColor=#6c8ebf;strokeWidth=2;fillColor=#dae8fc;rounded=1;glass=0;shadow=1;sketch=1;perimeterSpacing=0;" parent="WIyWlLk6GJQsqaUBKTNV-1" vertex="1">
          <mxGeometry x="659.9999999999999" y="390" width="110" height="50" as="geometry" />
        </mxCell>
        <mxCell id="I4y3ttGowcUQWgG4_OlH-54" value="" style="endArrow=block;startArrow=block;html=1;strokeColor=#CC0000;strokeWidth=1;entryX=0.994;entryY=0.589;entryDx=0;entryDy=0;entryPerimeter=0;exitX=0;exitY=0.5;exitDx=0;exitDy=0;endSize=12;startSize=12;endFill=0;startFill=0;" parent="WIyWlLk6GJQsqaUBKTNV-1" source="I4y3ttGowcUQWgG4_OlH-50" target="I4y3ttGowcUQWgG4_OlH-4" edge="1">
          <mxGeometry width="50" height="50" relative="1" as="geometry">
            <mxPoint x="330" y="540" as="sourcePoint" />
            <mxPoint x="380" y="490" as="targetPoint" />
          </mxGeometry>
        </mxCell>
        <mxCell id="I4y3ttGowcUQWgG4_OlH-58" value="&lt;p style=&quot;line-height: 120%&quot;&gt;&lt;br&gt;&lt;/p&gt;" style="text;html=1;strokeColor=none;fillColor=none;align=center;verticalAlign=middle;whiteSpace=wrap;rounded=0;shadow=1;glass=1;dashed=1;dashPattern=1 1;sketch=0;" parent="WIyWlLk6GJQsqaUBKTNV-1" vertex="1">
          <mxGeometry x="560" y="150" width="40" height="20" as="geometry" />
        </mxCell>
        <mxCell id="I4y3ttGowcUQWgG4_OlH-69" value="&lt;div style=&quot;font-size: 14px&quot;&gt;&lt;b&gt;&lt;font style=&quot;font-size: 14px&quot;&gt;Ahmed Habibullah Rifat&lt;/font&gt;&lt;/b&gt;&lt;/div&gt;&lt;div style=&quot;font-size: 14px&quot;&gt;&lt;b&gt;&lt;font style=&quot;font-size: 14px&quot;&gt;Erno Viitanen&lt;/font&gt;&lt;/b&gt;&lt;/div&gt;&lt;div style=&quot;font-size: 14px&quot;&gt;&lt;b&gt;&lt;font style=&quot;font-size: 14px&quot;&gt;Bilal Al-Dulaimi&lt;br&gt;&lt;/font&gt;&lt;/b&gt;&lt;/div&gt;" style="text;html=1;strokeColor=none;fillColor=none;align=center;verticalAlign=middle;whiteSpace=wrap;rounded=0;shadow=1;glass=1;dashed=1;dashPattern=1 1;sketch=0;" parent="WIyWlLk6GJQsqaUBKTNV-1" vertex="1">
          <mxGeometry x="624.4399999999999" y="700" width="170" height="20" as="geometry" />
        </mxCell>
        <mxCell id="JhNdbCUnNRkgnIKicVBu-0" value="&lt;span id=&quot;yui_3_17_2_1_1599549741766_42&quot; lang=&quot;EN-US&quot;&gt;fetches open&lt;br&gt;work numbers&lt;/span&gt;" style="text;whiteSpace=wrap;html=1;" vertex="1" parent="WIyWlLk6GJQsqaUBKTNV-1">
          <mxGeometry x="720" y="310" width="100" height="40" as="geometry" />
        </mxCell>
        <mxCell id="JhNdbCUnNRkgnIKicVBu-1" value="transfer w&lt;font style=&quot;font-size: 12px&quot;&gt;&lt;span id=&quot;yui_3_17_2_1_1599549741766_42&quot; lang=&quot;EN-US&quot;&gt;orking hours&lt;/span&gt; &lt;span id=&quot;yui_3_17_2_1_1599549741766_42&quot; lang=&quot;EN-US&quot;&gt;once a week&lt;/span&gt;&lt;/font&gt;&lt;font style=&quot;font-size: 12px&quot;&gt;&lt;br&gt;&lt;/font&gt;" style="text;whiteSpace=wrap;html=1;" vertex="1" parent="WIyWlLk6GJQsqaUBKTNV-1">
          <mxGeometry x="530" y="410" width="110" height="40" as="geometry" />
        </mxCell>
        <mxCell id="JhNdbCUnNRkgnIKicVBu-2" value="" style="aspect=fixed;perimeter=ellipsePerimeter;html=1;align=center;shadow=0;dashed=0;spacingTop=3;image;image=img/lib/active_directory/databases.svg;" vertex="1" parent="WIyWlLk6GJQsqaUBKTNV-1">
          <mxGeometry x="439.99999999999994" y="120" width="81.63" height="80" as="geometry" />
        </mxCell>
        <mxCell id="JhNdbCUnNRkgnIKicVBu-4" style="rounded=0;orthogonalLoop=1;jettySize=auto;html=1;exitX=0.5;exitY=0;exitDx=0;exitDy=0;entryX=0.75;entryY=1;entryDx=0;entryDy=0;endArrow=block;endFill=0;strokeColor=#CC0000;endSize=12;startSize=12;startArrow=block;startFill=0;" edge="1" parent="WIyWlLk6GJQsqaUBKTNV-1" source="JhNdbCUnNRkgnIKicVBu-3" target="I4y3ttGowcUQWgG4_OlH-4">
          <mxGeometry relative="1" as="geometry" />
        </mxCell>
        <mxCell id="JhNdbCUnNRkgnIKicVBu-3" value="&lt;div style=&quot;font-size: 14px&quot;&gt;&lt;font style=&quot;font-size: 14px&quot;&gt;&lt;b&gt;Desktop window&lt;/b&gt;&lt;/font&gt;&lt;/div&gt;&lt;div style=&quot;font-size: 14px&quot;&gt;&lt;font style=&quot;font-size: 14px&quot;&gt;&lt;b&gt;interface&lt;br&gt;&lt;/b&gt;&lt;/font&gt;&lt;/div&gt;" style="rounded=1;whiteSpace=wrap;html=1;fillColor=#dae8fc;strokeColor=#6c8ebf;" vertex="1" parent="WIyWlLk6GJQsqaUBKTNV-1">
          <mxGeometry x="480" y="570" width="120" height="60" as="geometry" />
        </mxCell>
        <mxCell id="JhNdbCUnNRkgnIKicVBu-7" value="&lt;br&gt;&lt;div&gt;&lt;span id=&quot;yui_3_17_2_1_1599635082173_30&quot; lang=&quot;EN-US&quot;&gt;input default information&lt;/span&gt;&lt;/div&gt;&lt;div&gt;&lt;span id=&quot;yui_3_17_2_1_1599635082173_30&quot; lang=&quot;EN-US&quot;&gt;&lt;span id=&quot;yui_3_17_2_1_1599635082173_30&quot; lang=&quot;EN-US&quot;&gt;add personnel&lt;/span&gt;&lt;/span&gt;&lt;/div&gt;&lt;div&gt;&lt;span id=&quot;yui_3_17_2_1_1599635082173_30&quot; lang=&quot;EN-US&quot;&gt;sales orders&lt;/span&gt;&lt;/div&gt;&lt;div&gt;&lt;span id=&quot;yui_3_17_2_1_1599635082173_30&quot; lang=&quot;EN-US&quot;&gt;print report&lt;br&gt;&lt;/span&gt;&lt;/div&gt;&lt;div&gt;&lt;span id=&quot;yui_3_17_2_1_1599635082173_30&quot; lang=&quot;EN-US&quot;&gt;&lt;span id=&quot;yui_3_17_2_1_1599635082173_30&quot; lang=&quot;EN-US&quot;&gt;&lt;br&gt;&lt;/span&gt;&lt;/span&gt;&lt;/div&gt;" style="text;html=1;strokeColor=none;fillColor=none;align=center;verticalAlign=middle;whiteSpace=wrap;rounded=0;" vertex="1" parent="WIyWlLk6GJQsqaUBKTNV-1">
          <mxGeometry x="470" y="480" width="190" height="80" as="geometry" />
        </mxCell>
        <mxCell id="JhNdbCUnNRkgnIKicVBu-9" style="rounded=0;orthogonalLoop=1;jettySize=auto;html=1;entryX=0.3;entryY=1.022;entryDx=0;entryDy=0;entryPerimeter=0;startArrow=block;startFill=0;startSize=12;endArrow=block;endFill=0;endSize=12;strokeColor=#CC0000;jumpSize=6;" edge="1" parent="WIyWlLk6GJQsqaUBKTNV-1" source="JhNdbCUnNRkgnIKicVBu-8" target="I4y3ttGowcUQWgG4_OlH-4">
          <mxGeometry relative="1" as="geometry" />
        </mxCell>
        <mxCell id="JhNdbCUnNRkgnIKicVBu-8" value="&lt;b&gt;&lt;font style=&quot;font-size: 14px&quot;&gt;&lt;span id=&quot;yui_3_17_2_1_1599635082173_30&quot; lang=&quot;EN-US&quot;&gt;Web interface&lt;/span&gt;&lt;/font&gt;&lt;/b&gt;" style="rounded=1;whiteSpace=wrap;html=1;fillColor=#dae8fc;strokeColor=#6c8ebf;" vertex="1" parent="WIyWlLk6GJQsqaUBKTNV-1">
          <mxGeometry x="190" y="555" width="120" height="60" as="geometry" />
        </mxCell>
        <mxCell id="JhNdbCUnNRkgnIKicVBu-10" value="&lt;br&gt;&lt;span id=&quot;yui_3_17_2_1_1599635082173_30&quot; lang=&quot;EN-US&quot;&gt;input working hours&lt;/span&gt;&lt;br&gt;&lt;div&gt;sales hours&lt;span id=&quot;yui_3_17_2_1_1599635082173_43&quot; lang=&quot;EN-US&quot;&gt;&lt;br&gt;&lt;/span&gt;&lt;/div&gt;&lt;div&gt;&lt;span id=&quot;yui_3_17_2_1_1599635082173_43&quot; lang=&quot;EN-US&quot;&gt;yearly vacation&lt;/span&gt;&lt;/div&gt;" style="text;html=1;strokeColor=none;fillColor=none;align=center;verticalAlign=middle;whiteSpace=wrap;rounded=0;" vertex="1" parent="WIyWlLk6GJQsqaUBKTNV-1">
          <mxGeometry x="175" y="470" width="170" height="70" as="geometry" />
        </mxCell>
        <mxCell id="JhNdbCUnNRkgnIKicVBu-11" value="&lt;b&gt;&lt;font style=&quot;font-size: 14px&quot;&gt;payment method &lt;/font&gt;&lt;/b&gt;" style="rounded=1;whiteSpace=wrap;html=1;fillColor=#dae8fc;strokeColor=#6c8ebf;" vertex="1" parent="WIyWlLk6GJQsqaUBKTNV-1">
          <mxGeometry x="87.5" y="360" width="120" height="60" as="geometry" />
        </mxCell>
        <mxCell id="JhNdbCUnNRkgnIKicVBu-12" value="&lt;p style=&quot;margin: 0px 0px 0px 8px ; font-size: 13px&quot;&gt;payment salary&lt;/p&gt;" style="text;html=1;align=center;verticalAlign=middle;resizable=0;points=[];autosize=1;" vertex="1" parent="WIyWlLk6GJQsqaUBKTNV-1">
          <mxGeometry x="205" y="370" width="110" height="20" as="geometry" />
        </mxCell>
      </root>
    </mxGraphModel>
  </diagram>
</mxfile>
